<svg width="24" height="24" viewBox="0 0 24 24" fill="none" xmlns="http://www.w3.org/2000/svg">
<path fill-rule="evenodd" clip-rule="evenodd" d="M3.22301 3.02929C3.655 2.5973 4.24089 2.35462 4.85181 2.35462H18.6726C19.2835 2.35462 19.8694 2.5973 20.3014 3.02929C20.7334 3.46127 20.9761 4.04717 20.9761 4.65808V18.4789C20.9761 19.0898 20.7334 19.6757 20.3014 20.1077C19.8694 20.5397 19.2835 20.7824 18.6726 20.7824H4.85181C4.24089 20.7824 3.655 20.5397 3.22301 20.1077C2.79103 19.6757 2.54834 19.0898 2.54834 18.4789V4.65808C2.54834 4.04717 2.79103 3.46127 3.22301 3.02929ZM18.6726 0.0511475H4.85181C3.62997 0.0511475 2.45818 0.53652 1.59421 1.40049C0.730245 2.26446 0.244873 3.43625 0.244873 4.65808V18.4789C0.244873 19.7007 0.730245 20.8725 1.59421 21.7365C2.45818 22.6005 3.62997 23.0858 4.85181 23.0858H18.6726C19.8945 23.0858 21.0662 22.6005 21.9302 21.7365C22.7942 20.8725 23.2796 19.7007 23.2796 18.4789V4.65808C23.2796 3.43625 22.7942 2.26446 21.9302 1.40049C21.0662 0.53652 19.8945 0.0511475 18.6726 0.0511475ZM17.5209 17.1278V12.8698C17.5209 10.5894 16.3023 9.52746 14.6784 9.52746C13.3666 9.52746 12.7815 10.2484 12.4532 10.7552V10.7782H12.4371L12.4532 10.7541V9.70253H9.98392C10.0173 10.3993 9.98392 17.1278 9.98392 17.1278H12.4532V12.9804C12.4532 12.7592 12.4705 12.5381 12.535 12.3792C12.7135 11.9346 13.1201 11.4762 13.8019 11.4762C14.6957 11.4762 15.0527 12.1569 15.0527 13.1543V17.1278H17.5209ZM6.00353 7.40482C6.00353 6.67692 6.55636 6.12178 7.40058 6.12178C8.24595 6.12178 8.76538 6.67692 8.78151 7.40482C8.78151 8.11774 8.24595 8.689 7.38446 8.689H7.36833C6.54024 8.689 6.00353 8.11889 6.00353 7.40482ZM8.61911 17.1278H6.1498V9.70253H8.61911V17.1278Z" fill="#00C853"/>
</svg>
